<svg width="1200" height="360" viewBox="0 0 1200 360" fill="none" xmlns="http://www.w3.org/2000/svg">
  <defs>
    <linearGradient id="bg" x1="0" y1="0" x2="1200" y2="360" gradientUnits="userSpaceOnUse">
      <stop stop-color="#0B1020"/>
      <stop offset="1" stop-color="#172554"/>
    </linearGradient>
    <linearGradient id="line" x1="210" y1="80" x2="920" y2="280" gradientUnits="userSpaceOnUse">
      <stop stop-color="#60A5FA"/>
      <stop offset="1" stop-color="#22D3EE"/>
    </linearGradient>
    <filter id="blur" x="-30%" y="-30%" width="160%" height="160%">
      <feGaussianBlur stdDeviation="50"/>
    </filter>
  </defs>
  <rect width="1200" height="360" rx="28" fill="url(#bg)"/>
  <circle cx="1050" cy="90" r="150" fill="#2563EB" fill-opacity="0.25" filter="url(#blur)"/>
  <circle cx="170" cy="330" r="150" fill="#06B6D4" fill-opacity="0.15" filter="url(#blur)"/>
  <path d="M820 58H1090M760 302H1030" stroke="url(#line)" stroke-width="2" stroke-linecap="round" opacity="0.55"/>
  <circle cx="1090" cy="58" r="6" fill="#67E8F9"/>
  <circle cx="760" cy="302" r="6" fill="#60A5FA"/>
  <rect x="74" y="68" width="176" height="34" rx="17" fill="#FFFFFF" fill-opacity="0.08" stroke="#FFFFFF" stroke-opacity="0.12"/>
  <text x="162" y="91" text-anchor="middle" fill="#93C5FD" font-family="Segoe UI, Arial, sans-serif" font-size="15" font-weight="600" letter-spacing="2">MOSCOW · REMOTE</text>
  <text x="72" y="175" fill="#FFFFFF" font-family="Segoe UI, Arial, sans-serif" font-size="58" font-weight="700">Sergey Shipilov</text>
  <text x="74" y="225" fill="#BFDBFE" font-family="Segoe UI, Arial, sans-serif" font-size="25" font-weight="500">Full-stack · Automation · DevOps</text>
  <text x="74" y="280" fill="#CBD5E1" font-family="Segoe UI, Arial, sans-serif" font-size="19">Practical systems, clear milestones, supportable delivery.</text>
  <g transform="translate(918 130)">
    <rect width="190" height="98" rx="18" fill="#FFFFFF" fill-opacity="0.06" stroke="#FFFFFF" stroke-opacity="0.14"/>
    <path d="M38 47L54 31L70 47M54 31V68" stroke="#67E8F9" stroke-width="4" stroke-linecap="round" stroke-linejoin="round"/>
    <text x="89" y="47" fill="#FFFFFF" font-family="Segoe UI, Arial, sans-serif" font-size="17" font-weight="600">BUILD</text>
    <text x="89" y="69" fill="#93C5FD" font-family="Segoe UI, Arial, sans-serif" font-size="14">SHIP · SUPPORT</text>
  </g>
</svg>
